<svg id="visual" viewBox="0 0 900 400" width="900" height="400" xmlns="http://www.w3.org/2000/svg" xmlns:xlink="http://www.w3.org/1999/xlink" version="1.1"><rect x="0" y="0" width="900" height="400" fill="#001220"></rect><path d="M0 118L21.5 119.2C43 120.3 86 122.7 128.8 122.3C171.7 122 214.3 119 257.2 112.2C300 105.3 343 94.7 385.8 90C428.7 85.3 471.3 86.7 514.2 90.7C557 94.7 600 101.3 642.8 100.2C685.7 99 728.3 90 771.2 91C814 92 857 103 878.5 108.5L900 114L900 0L878.5 0C857 0 814 0 771.2 0C728.3 0 685.7 0 642.8 0C600 0 557 0 514.2 0C471.3 0 428.7 0 385.8 0C343 0 300 0 257.2 0C214.3 0 171.7 0 128.8 0C86 0 43 0 21.5 0L0 0Z" fill="#ff00dd"></path><path d="M0 75L21.5 78C43 81 86 87 128.8 92.5C171.7 98 214.3 103 257.2 105.2C300 107.3 343 106.7 385.8 101.5C428.7 96.3 471.3 86.7 514.2 80.2C557 73.7 600 70.3 642.8 68.5C685.7 66.7 728.3 66.3 771.2 72.2C814 78 857 90 878.5 96L900 102L900 0L878.5 0C857 0 814 0 771.2 0C728.3 0 685.7 0 642.8 0C600 0 557 0 514.2 0C471.3 0 428.7 0 385.8 0C343 0 300 0 257.2 0C214.3 0 171.7 0 128.8 0C86 0 43 0 21.5 0L0 0Z" fill="#e400e6"></path><path d="M0 75L21.5 70.7C43 66.3 86 57.7 128.8 57.8C171.7 58 214.3 67 257.2 73C300 79 343 82 385.8 78.8C428.7 75.7 471.3 66.3 514.2 64.8C557 63.3 600 69.7 642.8 73.2C685.7 76.7 728.3 77.3 771.2 76.3C814 75.3 857 72.7 878.5 71.3L900 70L900 0L878.5 0C857 0 814 0 771.2 0C728.3 0 685.7 0 642.8 0C600 0 557 0 514.2 0C471.3 0 428.7 0 385.8 0C343 0 300 0 257.2 0C214.3 0 171.7 0 128.8 0C86 0 43 0 21.5 0L0 0Z" fill="#c500ee"></path><path d="M0 38L21.5 36.8C43 35.7 86 33.3 128.8 32.3C171.7 31.3 214.3 31.7 257.2 34.2C300 36.7 343 41.3 385.8 45.3C428.7 49.3 471.3 52.7 514.2 53.2C557 53.7 600 51.3 642.8 50.8C685.7 50.3 728.3 51.7 771.2 49.3C814 47 857 41 878.5 38L900 35L900 0L878.5 0C857 0 814 0 771.2 0C728.3 0 685.7 0 642.8 0C600 0 557 0 514.2 0C471.3 0 428.7 0 385.8 0C343 0 300 0 257.2 0C214.3 0 171.7 0 128.8 0C86 0 43 0 21.5 0L0 0Z" fill="#9e00f6"></path><path d="M0 27L21.5 25.3C43 23.7 86 20.3 128.8 18.7C171.7 17 214.3 17 257.2 20C300 23 343 29 385.8 31.2C428.7 33.3 471.3 31.7 514.2 31.5C557 31.3 600 32.7 642.8 30.2C685.7 27.7 728.3 21.3 771.2 18C814 14.7 857 14.3 878.5 14.2L900 14L900 0L878.5 0C857 0 814 0 771.2 0C728.3 0 685.7 0 642.8 0C600 0 557 0 514.2 0C471.3 0 428.7 0 385.8 0C343 0 300 0 257.2 0C214.3 0 171.7 0 128.8 0C86 0 43 0 21.5 0L0 0Z" fill="#6600ff"></path></svg>